# xmcd
#
# Track frame offsets:
#	150
#	20377
#	39597
#	59205
#	75677
#	94397
#	118670
#	137457
#	155317
#	175432
#	192562
#	211227
#	233900
#	254055
#
# Disc length: 3695 seconds
#
# Revision: 1
# Processed by: cddbd v1.4PL0 Copyright (c) Steve Scherf et al.
# Submitted via: audiograbber 1.80.04
#
DISCID=cb0e6d0e
DTITLE=Ray Charles - Imagine
DYEAR=2000
DGENRE=Blues
TTITLE0=Imagine
TTITLE1=All She Wants to do is Love Me
TTITLE2=Say No More
TTITLE3=No Time To Waste Time
TTITLE4=Angelina
TTITLE5=Tell Me What You Want me To Do
TTITLE6=Strong  Love Affair
TTITLE7=Everybody's Handsome Child
TTITLE8=Out Of My Time
TTITLE9=The Fever
TTITLE10=Separate Ways
TTITLE11=I Need a Good Woman Bad
TTITLE12=If You Give Me Your Heart  ( Duet with Peggy Adams Scott )
TTITLE13=Till The Next... Somewhere ( Duet with Dee Dee Bridgewater )
EXTD=
EXTT0=
EXTT1=
EXTT2=
EXTT3=
EXTT4=
EXTT5=
EXTT6=
EXTT7=
EXTT8=
EXTT9=
EXTT10=
EXTT11=
EXTT12=
EXTT13=
PLAYORDER=
